<mxfile host="65bd71144e">
    <diagram id="Q6354HftiYKHXJSlLoms" name="Banco">
        <mxGraphModel dx="654" dy="469" grid="1" gridSize="10" guides="1" tooltips="1" connect="1" arrows="1" fold="1" page="1" pageScale="1" pageWidth="850" pageHeight="1100" background="#7D7D7D" math="0" shadow="0">
            <root>
                <mxCell id="0"/>
                <mxCell id="1" parent="0"/>
                <mxCell id="20" style="edgeStyle=none;html=1;fontColor=#6600CC;" edge="1" parent="1" source="2" target="14">
                    <mxGeometry relative="1" as="geometry"/>
                </mxCell>
                <mxCell id="2" value="Class&lt;br&gt;Banco&lt;br&gt;&lt;br&gt;" style="swimlane;fontStyle=0;align=center;verticalAlign=top;childLayout=stackLayout;horizontal=1;startSize=40;horizontalStack=0;resizeParent=1;resizeParentMax=0;resizeLast=0;collapsible=0;marginBottom=0;html=1;fillColor=#0050ef;strokeColor=#001DBC;labelPadding=10;noLabel=0;resizeWidth=1;resizeHeight=1;shadow=0;rounded=0;glass=0;fontColor=#ffffff;" vertex="1" parent="1">
                    <mxGeometry x="795" y="260" width="160" height="140" as="geometry"/>
                </mxCell>
                <mxCell id="57" value="'Atributos'" style="text;html=1;strokeColor=none;fillColor=default;align=center;verticalAlign=middle;spacingLeft=4;spacingRight=4;overflow=hidden;rotatable=0;points=[[0,0.5],[1,0.5]];portConstraint=eastwest;" vertex="1" parent="2">
                    <mxGeometry y="40" width="160" height="20" as="geometry"/>
                </mxCell>
                <mxCell id="4" value="&lt;font color=&quot;#6600cc&quot;&gt;self.logado:bool&lt;/font&gt;" style="text;html=1;strokeColor=none;fillColor=default;align=left;verticalAlign=middle;spacingLeft=4;spacingRight=4;overflow=hidden;rotatable=0;points=[[0,0.5],[1,0.5]];portConstraint=eastwest;" vertex="1" parent="2">
                    <mxGeometry y="60" width="160" height="20" as="geometry"/>
                </mxCell>
                <mxCell id="10" value="self.contaLogada_ID:str" style="text;html=1;strokeColor=none;fillColor=default;align=left;verticalAlign=middle;spacingLeft=4;spacingRight=4;overflow=hidden;rotatable=0;points=[[0,0.5],[1,0.5]];portConstraint=eastwest;fontColor=#6600CC;" vertex="1" parent="2">
                    <mxGeometry y="80" width="160" height="20" as="geometry"/>
                </mxCell>
                <mxCell id="11" value="self.contaLogada_Nome:str&amp;nbsp;" style="text;html=1;strokeColor=none;fillColor=default;align=left;verticalAlign=middle;spacingLeft=4;spacingRight=4;overflow=hidden;rotatable=0;points=[[0,0.5],[1,0.5]];portConstraint=eastwest;fontColor=#6600CC;" vertex="1" parent="2">
                    <mxGeometry y="100" width="160" height="20" as="geometry"/>
                </mxCell>
                <mxCell id="13" value="self.contaLogada_Saldo:str" style="text;html=1;strokeColor=none;fillColor=default;align=left;verticalAlign=middle;spacingLeft=4;spacingRight=4;overflow=hidden;rotatable=0;points=[[0,0.5],[1,0.5]];portConstraint=eastwest;fontColor=#6600CC;" vertex="1" parent="2">
                    <mxGeometry y="120" width="160" height="20" as="geometry"/>
                </mxCell>
                <mxCell id="52" style="edgeStyle=orthogonalEdgeStyle;html=1;entryX=0.563;entryY=0;entryDx=0;entryDy=0;entryPerimeter=0;fontColor=#FF0000;" edge="1" parent="1" source="14" target="45">
                    <mxGeometry relative="1" as="geometry">
                        <Array as="points">
                            <mxPoint x="875" y="610"/>
                            <mxPoint x="715" y="610"/>
                        </Array>
                    </mxGeometry>
                </mxCell>
                <mxCell id="76" style="edgeStyle=orthogonalEdgeStyle;html=1;fontColor=#0000CC;" edge="1" parent="1" source="14" target="66">
                    <mxGeometry relative="1" as="geometry">
                        <Array as="points">
                            <mxPoint x="875" y="610"/>
                            <mxPoint x="1260" y="610"/>
                        </Array>
                    </mxGeometry>
                </mxCell>
                <mxCell id="78" style="edgeStyle=orthogonalEdgeStyle;html=1;fontColor=#0000CC;" edge="1" parent="1" source="14" target="60">
                    <mxGeometry relative="1" as="geometry">
                        <Array as="points">
                            <mxPoint x="875" y="610"/>
                            <mxPoint x="980" y="610"/>
                        </Array>
                    </mxGeometry>
                </mxCell>
                <mxCell id="14" value="Def&lt;br&gt;menuInicial" style="swimlane;fontStyle=0;align=center;verticalAlign=top;childLayout=stackLayout;horizontal=1;startSize=40;horizontalStack=0;resizeParent=1;resizeParentMax=0;resizeLast=0;collapsible=0;marginBottom=0;html=1;fillColor=#60a917;strokeColor=#2D7600;labelPadding=10;noLabel=0;resizeWidth=1;resizeHeight=1;shadow=0;rounded=0;glass=0;fontColor=#ffffff;" vertex="1" parent="1">
                    <mxGeometry x="795" y="440" width="160" height="140" as="geometry"/>
                </mxCell>
                <mxCell id="15" value="'Opções'" style="text;html=1;strokeColor=none;fillColor=default;align=center;verticalAlign=middle;spacingLeft=4;spacingRight=4;overflow=hidden;rotatable=0;points=[[0,0.5],[1,0.5]];portConstraint=eastwest;" vertex="1" parent="14">
                    <mxGeometry y="40" width="160" height="20" as="geometry"/>
                </mxCell>
                <mxCell id="16" value="&lt;font color=&quot;#6600cc&quot;&gt;opcao:input&lt;/font&gt;" style="text;html=1;strokeColor=none;fillColor=default;align=left;verticalAlign=middle;spacingLeft=4;spacingRight=4;overflow=hidden;rotatable=0;points=[[0,0.5],[1,0.5]];portConstraint=eastwest;" vertex="1" parent="14">
                    <mxGeometry y="60" width="160" height="20" as="geometry"/>
                </mxCell>
                <mxCell id="17" value="1 - Logar" style="text;html=1;strokeColor=none;fillColor=default;align=left;verticalAlign=middle;spacingLeft=4;spacingRight=4;overflow=hidden;rotatable=0;points=[[0,0.5],[1,0.5]];portConstraint=eastwest;fontColor=#009900;" vertex="1" parent="14">
                    <mxGeometry y="80" width="160" height="20" as="geometry"/>
                </mxCell>
                <mxCell id="18" value="2 - Criar Conta" style="text;html=1;strokeColor=none;fillColor=default;align=left;verticalAlign=middle;spacingLeft=4;spacingRight=4;overflow=hidden;rotatable=0;points=[[0,0.5],[1,0.5]];portConstraint=eastwest;fontColor=#009900;" vertex="1" parent="14">
                    <mxGeometry y="100" width="160" height="20" as="geometry"/>
                </mxCell>
                <mxCell id="19" value="3 - Sair" style="text;html=1;strokeColor=none;fillColor=default;align=left;verticalAlign=middle;spacingLeft=4;spacingRight=4;overflow=hidden;rotatable=0;points=[[0,0.5],[1,0.5]];portConstraint=eastwest;fontColor=#009900;" vertex="1" parent="14">
                    <mxGeometry y="120" width="160" height="20" as="geometry"/>
                </mxCell>
                <mxCell id="22" value="Cores:" style="swimlane;fontStyle=0;align=center;verticalAlign=top;childLayout=stackLayout;horizontal=1;startSize=40;horizontalStack=0;resizeParent=1;resizeParentMax=0;resizeLast=0;collapsible=0;marginBottom=0;html=1;fillColor=#0050ef;strokeColor=#001DBC;labelPadding=10;noLabel=0;resizeWidth=1;resizeHeight=1;shadow=0;rounded=0;glass=0;fontColor=#ffffff;" vertex="1" parent="1">
                    <mxGeometry width="160" height="120" as="geometry"/>
                </mxCell>
                <mxCell id="24" value="&lt;font color=&quot;#6600cc&quot;&gt;Roxo = Variavel&lt;/font&gt;" style="text;html=1;strokeColor=none;fillColor=default;align=left;verticalAlign=middle;spacingLeft=4;spacingRight=4;overflow=hidden;rotatable=0;points=[[0,0.5],[1,0.5]];portConstraint=eastwest;" vertex="1" parent="22">
                    <mxGeometry y="40" width="160" height="20" as="geometry"/>
                </mxCell>
                <mxCell id="25" value="Verde = Output" style="text;html=1;strokeColor=none;fillColor=default;align=left;verticalAlign=middle;spacingLeft=4;spacingRight=4;overflow=hidden;rotatable=0;points=[[0,0.5],[1,0.5]];portConstraint=eastwest;fontColor=#009900;" vertex="1" parent="22">
                    <mxGeometry y="60" width="160" height="20" as="geometry"/>
                </mxCell>
                <mxCell id="36" value="&lt;font color=&quot;#ff0000&quot;&gt;Vermelho = Condição&lt;/font&gt;" style="text;html=1;strokeColor=none;fillColor=default;align=left;verticalAlign=middle;spacingLeft=4;spacingRight=4;overflow=hidden;rotatable=0;points=[[0,0.5],[1,0.5]];portConstraint=eastwest;fontColor=#009900;" vertex="1" parent="22">
                    <mxGeometry y="80" width="160" height="20" as="geometry"/>
                </mxCell>
                <mxCell id="59" value="&lt;font color=&quot;#0000ff&quot;&gt;Azul = Lógica&lt;/font&gt;" style="text;html=1;strokeColor=none;fillColor=default;align=left;verticalAlign=middle;spacingLeft=4;spacingRight=4;overflow=hidden;rotatable=0;points=[[0,0.5],[1,0.5]];portConstraint=eastwest;fontColor=#009900;" vertex="1" parent="22">
                    <mxGeometry y="100" width="160" height="20" as="geometry"/>
                </mxCell>
                <mxCell id="44" style="edgeStyle=orthogonalEdgeStyle;html=1;exitX=1;exitY=0.5;exitDx=0;exitDy=0;entryX=0;entryY=0.5;entryDx=0;entryDy=0;fontColor=#FF0000;" edge="1" parent="1" source="34" target="42">
                    <mxGeometry relative="1" as="geometry"/>
                </mxCell>
                <mxCell id="84" style="edgeStyle=orthogonalEdgeStyle;html=1;entryX=0.5;entryY=1;entryDx=0;entryDy=0;strokeColor=#000000;fontColor=#0000CC;" edge="1" parent="1" source="34" target="37">
                    <mxGeometry relative="1" as="geometry">
                        <Array as="points">
                            <mxPoint x="700" y="1000"/>
                            <mxPoint x="540" y="1000"/>
                        </Array>
                    </mxGeometry>
                </mxCell>
                <mxCell id="34" value="&lt;font color=&quot;#ff0000&quot;&gt;Logado&lt;/font&gt;" style="rhombus;whiteSpace=wrap;html=1;rounded=0;shadow=0;glass=0;sketch=0;fontColor=#009900;fillColor=default;" vertex="1" parent="1">
                    <mxGeometry x="660" y="890" width="80" height="80" as="geometry"/>
                </mxCell>
                <mxCell id="39" style="edgeStyle=orthogonalEdgeStyle;html=1;fontColor=#FF0000;entryX=0;entryY=0.5;entryDx=0;entryDy=0;" edge="1" parent="1" source="37" target="15">
                    <mxGeometry relative="1" as="geometry">
                        <mxPoint x="720" y="440" as="targetPoint"/>
                    </mxGeometry>
                </mxCell>
                <mxCell id="37" value="False" style="whiteSpace=wrap;html=1;aspect=fixed;rounded=0;shadow=0;glass=0;sketch=0;fontColor=#FF0000;fillColor=default;" vertex="1" parent="1">
                    <mxGeometry x="520" y="550" width="40" height="40" as="geometry"/>
                </mxCell>
                <mxCell id="85" style="edgeStyle=orthogonalEdgeStyle;html=1;strokeColor=#000000;fontColor=#0000CC;" edge="1" parent="1" source="42">
                    <mxGeometry relative="1" as="geometry">
                        <mxPoint x="980" y="1000" as="targetPoint"/>
                    </mxGeometry>
                </mxCell>
                <mxCell id="42" value="True" style="whiteSpace=wrap;html=1;aspect=fixed;rounded=0;shadow=0;glass=0;sketch=0;fontColor=#FF0000;fillColor=default;" vertex="1" parent="1">
                    <mxGeometry x="840" y="910" width="40" height="40" as="geometry"/>
                </mxCell>
                <mxCell id="81" style="edgeStyle=orthogonalEdgeStyle;html=1;entryX=0.017;entryY=0.574;entryDx=0;entryDy=0;entryPerimeter=0;strokeColor=#000000;fontColor=#0000CC;" edge="1" parent="1" source="45" target="34">
                    <mxGeometry relative="1" as="geometry">
                        <Array as="points">
                            <mxPoint x="580" y="930"/>
                            <mxPoint x="661" y="930"/>
                        </Array>
                    </mxGeometry>
                </mxCell>
                <mxCell id="45" value="Def&lt;br&gt;Logar" style="swimlane;fontStyle=0;align=center;verticalAlign=top;childLayout=stackLayout;horizontal=1;startSize=40;horizontalStack=0;resizeParent=1;resizeParentMax=0;resizeLast=0;collapsible=0;marginBottom=0;html=1;fillColor=#60a917;strokeColor=#2D7600;labelPadding=10;noLabel=0;resizeWidth=1;resizeHeight=1;shadow=0;rounded=0;glass=0;fontColor=#ffffff;" vertex="1" parent="1">
                    <mxGeometry x="580" y="630" width="240" height="170" as="geometry"/>
                </mxCell>
                <mxCell id="47" value="&lt;font color=&quot;#6600cc&quot;&gt;usuario:str&lt;/font&gt;" style="text;html=1;strokeColor=none;fillColor=default;align=left;verticalAlign=middle;spacingLeft=4;spacingRight=4;overflow=hidden;rotatable=0;points=[[0,0.5],[1,0.5]];portConstraint=eastwest;" vertex="1" parent="45">
                    <mxGeometry y="40" width="240" height="20" as="geometry"/>
                </mxCell>
                <mxCell id="58" value="&lt;font color=&quot;#6600cc&quot;&gt;senha:str&lt;/font&gt;" style="text;html=1;strokeColor=none;fillColor=default;align=left;verticalAlign=middle;spacingLeft=4;spacingRight=4;overflow=hidden;rotatable=0;points=[[0,0.5],[1,0.5]];portConstraint=eastwest;" vertex="1" parent="45">
                    <mxGeometry y="60" width="240" height="20" as="geometry"/>
                </mxCell>
                <mxCell id="88" value="" style="text;html=1;strokeColor=none;fillColor=default;align=left;verticalAlign=middle;spacingLeft=4;spacingRight=4;overflow=hidden;rotatable=0;points=[[0,0.5],[1,0.5]];portConstraint=eastwest;fontColor=#6600CC;" vertex="1" parent="45">
                    <mxGeometry y="80" width="240" height="20" as="geometry"/>
                </mxCell>
                <mxCell id="49" value="&lt;font color=&quot;#0000cc&quot;&gt;Verifica se contém o usuário na lista &lt;br&gt;e se a senha pertence aquele usuário.&lt;br&gt;&lt;br&gt;&lt;/font&gt;" style="text;html=1;strokeColor=none;fillColor=default;align=left;verticalAlign=middle;spacingLeft=4;spacingRight=4;overflow=hidden;rotatable=0;points=[[0,0.5],[1,0.5]];portConstraint=eastwest;fontColor=#009900;" vertex="1" parent="45">
                    <mxGeometry y="100" width="240" height="70" as="geometry"/>
                </mxCell>
                <mxCell id="83" style="edgeStyle=orthogonalEdgeStyle;html=1;strokeColor=#000000;fontColor=#0000CC;entryX=0.5;entryY=0;entryDx=0;entryDy=0;" edge="1" parent="1" source="60" target="34">
                    <mxGeometry relative="1" as="geometry">
                        <mxPoint x="920" y="880" as="targetPoint"/>
                        <Array as="points">
                            <mxPoint x="980" y="830"/>
                            <mxPoint x="700" y="830"/>
                        </Array>
                    </mxGeometry>
                </mxCell>
                <mxCell id="60" value="Def&lt;br&gt;Criar Conta" style="swimlane;fontStyle=0;align=center;verticalAlign=top;childLayout=stackLayout;horizontal=1;startSize=40;horizontalStack=0;resizeParent=1;resizeParentMax=0;resizeLast=0;collapsible=0;marginBottom=0;html=1;fillColor=#60a917;strokeColor=#2D7600;labelPadding=10;noLabel=0;resizeWidth=1;resizeHeight=1;shadow=0;rounded=0;glass=0;fontColor=#ffffff;" vertex="1" parent="1">
                    <mxGeometry x="860" y="630" width="240" height="190" as="geometry"/>
                </mxCell>
                <mxCell id="61" value="&lt;font color=&quot;#6600cc&quot;&gt;usuario:str&lt;/font&gt;" style="text;html=1;strokeColor=none;fillColor=default;align=left;verticalAlign=middle;spacingLeft=4;spacingRight=4;overflow=hidden;rotatable=0;points=[[0,0.5],[1,0.5]];portConstraint=eastwest;" vertex="1" parent="60">
                    <mxGeometry y="40" width="240" height="20" as="geometry"/>
                </mxCell>
                <mxCell id="62" value="&lt;font color=&quot;#6600cc&quot;&gt;senha:str&lt;/font&gt;" style="text;html=1;strokeColor=none;fillColor=default;align=left;verticalAlign=middle;spacingLeft=4;spacingRight=4;overflow=hidden;rotatable=0;points=[[0,0.5],[1,0.5]];portConstraint=eastwest;" vertex="1" parent="60">
                    <mxGeometry y="60" width="240" height="20" as="geometry"/>
                </mxCell>
                <mxCell id="65" value="&lt;font color=&quot;#6600cc&quot;&gt;saldo:float&lt;/font&gt;" style="text;html=1;strokeColor=none;fillColor=default;align=left;verticalAlign=middle;spacingLeft=4;spacingRight=4;overflow=hidden;rotatable=0;points=[[0,0.5],[1,0.5]];portConstraint=eastwest;" vertex="1" parent="60">
                    <mxGeometry y="80" width="240" height="20" as="geometry"/>
                </mxCell>
                <mxCell id="87" value="" style="text;html=1;strokeColor=none;fillColor=default;align=left;verticalAlign=middle;spacingLeft=4;spacingRight=4;overflow=hidden;rotatable=0;points=[[0,0.5],[1,0.5]];portConstraint=eastwest;fontColor=#6600CC;" vertex="1" parent="60">
                    <mxGeometry y="100" width="240" height="20" as="geometry"/>
                </mxCell>
                <mxCell id="63" value="&lt;font color=&quot;#0000cc&quot;&gt;Adiciona o usuário ,senha e saldo na última &lt;br&gt;posição da lista, e já loga o usuário cadastra&lt;br&gt;do.&lt;br&gt;&lt;br&gt;&lt;/font&gt;" style="text;html=1;strokeColor=none;fillColor=default;align=left;verticalAlign=middle;spacingLeft=4;spacingRight=4;overflow=hidden;rotatable=0;points=[[0,0.5],[1,0.5]];portConstraint=eastwest;fontColor=#009900;" vertex="1" parent="60">
                    <mxGeometry y="120" width="240" height="70" as="geometry"/>
                </mxCell>
                <mxCell id="66" value="Def&lt;br&gt;Sair" style="swimlane;fontStyle=0;align=center;verticalAlign=top;childLayout=stackLayout;horizontal=1;startSize=40;horizontalStack=0;resizeParent=1;resizeParentMax=0;resizeLast=0;collapsible=0;marginBottom=0;html=1;fillColor=#60a917;strokeColor=#2D7600;labelPadding=10;noLabel=0;resizeWidth=1;resizeHeight=1;shadow=0;rounded=0;glass=0;fontColor=#ffffff;" vertex="1" parent="1">
                    <mxGeometry x="1140" y="630" width="240" height="130" as="geometry"/>
                </mxCell>
                <mxCell id="72" value="Obrigado por utilizar!!!" style="text;html=1;strokeColor=none;fillColor=default;align=left;verticalAlign=middle;spacingLeft=4;spacingRight=4;overflow=hidden;rotatable=0;points=[[0,0.5],[1,0.5]];portConstraint=eastwest;fontColor=#009900;" vertex="1" parent="66">
                    <mxGeometry y="40" width="240" height="20" as="geometry"/>
                </mxCell>
                <mxCell id="70" value="&lt;span style=&quot;color: rgba(0, 0, 0, 0); font-family: monospace; font-size: 0px;&quot;&gt;%3CmxGraphModel%3E%3Croot%3E%3CmxCell%20id%3D%220%22%2F%3E%3CmxCell%20id%3D%221%22%20parent%3D%220%22%2F%3E%3CmxCell%20id%3D%222%22%20value%3D%22Verde%20%3D%20Output%22%20style%3D%22text%3Bhtml%3D1%3BstrokeColor%3Dnone%3BfillColor%3Ddefault%3Balign%3Dleft%3BverticalAlign%3Dmiddle%3BspacingLeft%3D4%3BspacingRight%3D4%3Boverflow%3Dhidden%3Brotatable%3D0%3Bpoints%3D%5B%5B0%2C0.5%5D%2C%5B1%2C0.5%5D%5D%3BportConstraint%3Deastwest%3BfontColor%3D%23009900%3B%22%20vertex%3D%221%22%20parent%3D%221%22%3E%3CmxGeometry%20y%3D%2260%22%20width%3D%22160%22%20height%3D%2220%22%20as%3D%22geometry%22%2F%3E%3C%2FmxCell%3E%3C%2Froot%3E%3C%2FmxGraphModel%3E&lt;/span&gt;&lt;font color=&quot;#0000cc&quot;&gt;.&lt;br&gt;&lt;br&gt;&lt;/font&gt;" style="text;html=1;strokeColor=none;fillColor=default;align=left;verticalAlign=middle;spacingLeft=4;spacingRight=4;overflow=hidden;rotatable=0;points=[[0,0.5],[1,0.5]];portConstraint=eastwest;fontColor=#009900;" vertex="1" parent="66">
                    <mxGeometry y="60" width="240" height="70" as="geometry"/>
                </mxCell>
                <mxCell id="90" value="Def&lt;br&gt;menuPrincipal" style="swimlane;fontStyle=0;align=center;verticalAlign=top;childLayout=stackLayout;horizontal=1;startSize=40;horizontalStack=0;resizeParent=1;resizeParentMax=0;resizeLast=0;collapsible=0;marginBottom=0;html=1;fillColor=#60a917;strokeColor=#2D7600;labelPadding=10;noLabel=0;resizeWidth=1;resizeHeight=1;shadow=0;rounded=0;glass=0;fontColor=#ffffff;" vertex="1" parent="1">
                    <mxGeometry x="900" y="1000" width="160" height="200" as="geometry"/>
                </mxCell>
                <mxCell id="91" value="'Opções'" style="text;html=1;strokeColor=none;fillColor=default;align=center;verticalAlign=middle;spacingLeft=4;spacingRight=4;overflow=hidden;rotatable=0;points=[[0,0.5],[1,0.5]];portConstraint=eastwest;" vertex="1" parent="90">
                    <mxGeometry y="40" width="160" height="20" as="geometry"/>
                </mxCell>
                <mxCell id="92" value="&lt;font color=&quot;#6600cc&quot;&gt;opcao:input&lt;/font&gt;" style="text;html=1;strokeColor=none;fillColor=default;align=left;verticalAlign=middle;spacingLeft=4;spacingRight=4;overflow=hidden;rotatable=0;points=[[0,0.5],[1,0.5]];portConstraint=eastwest;" vertex="1" parent="90">
                    <mxGeometry y="60" width="160" height="20" as="geometry"/>
                </mxCell>
                <mxCell id="93" value="1 - Transferir" style="text;html=1;strokeColor=none;fillColor=default;align=left;verticalAlign=middle;spacingLeft=4;spacingRight=4;overflow=hidden;rotatable=0;points=[[0,0.5],[1,0.5]];portConstraint=eastwest;fontColor=#009900;" vertex="1" parent="90">
                    <mxGeometry y="80" width="160" height="20" as="geometry"/>
                </mxCell>
                <mxCell id="94" value="2 - Depositar" style="text;html=1;strokeColor=none;fillColor=default;align=left;verticalAlign=middle;spacingLeft=4;spacingRight=4;overflow=hidden;rotatable=0;points=[[0,0.5],[1,0.5]];portConstraint=eastwest;fontColor=#009900;" vertex="1" parent="90">
                    <mxGeometry y="100" width="160" height="20" as="geometry"/>
                </mxCell>
                <mxCell id="95" value="3 - Sacar" style="text;html=1;strokeColor=none;fillColor=default;align=left;verticalAlign=middle;spacingLeft=4;spacingRight=4;overflow=hidden;rotatable=0;points=[[0,0.5],[1,0.5]];portConstraint=eastwest;fontColor=#009900;" vertex="1" parent="90">
                    <mxGeometry y="120" width="160" height="20" as="geometry"/>
                </mxCell>
                <mxCell id="98" value="4 - Consultar Saldo" style="text;html=1;strokeColor=none;fillColor=default;align=left;verticalAlign=middle;spacingLeft=4;spacingRight=4;overflow=hidden;rotatable=0;points=[[0,0.5],[1,0.5]];portConstraint=eastwest;fontColor=#009900;" vertex="1" parent="90">
                    <mxGeometry y="140" width="160" height="20" as="geometry"/>
                </mxCell>
                <mxCell id="96" value="5 - Deslogar" style="text;html=1;strokeColor=none;fillColor=default;align=left;verticalAlign=middle;spacingLeft=4;spacingRight=4;overflow=hidden;rotatable=0;points=[[0,0.5],[1,0.5]];portConstraint=eastwest;fontColor=#009900;" vertex="1" parent="90">
                    <mxGeometry y="160" width="160" height="20" as="geometry"/>
                </mxCell>
                <mxCell id="97" value="6 - Sair" style="text;html=1;strokeColor=none;fillColor=default;align=left;verticalAlign=middle;spacingLeft=4;spacingRight=4;overflow=hidden;rotatable=0;points=[[0,0.5],[1,0.5]];portConstraint=eastwest;fontColor=#009900;" vertex="1" parent="90">
                    <mxGeometry y="180" width="160" height="20" as="geometry"/>
                </mxCell>
                <mxCell id="105" style="edgeStyle=orthogonalEdgeStyle;html=1;strokeColor=#000000;fontColor=#0000CC;" edge="1" parent="1" source="99" target="2">
                    <mxGeometry relative="1" as="geometry"/>
                </mxCell>
                <mxCell id="99" value="Import&lt;br&gt;Class&lt;br&gt;db_IANES&lt;br&gt;" style="swimlane;fontStyle=0;align=center;verticalAlign=top;childLayout=stackLayout;horizontal=1;startSize=60;horizontalStack=0;resizeParent=1;resizeParentMax=0;resizeLast=0;collapsible=0;marginBottom=0;html=1;fillColor=#0050ef;strokeColor=#001DBC;labelPadding=10;noLabel=0;resizeWidth=1;resizeHeight=1;shadow=0;rounded=0;glass=0;fontColor=#ffffff;" vertex="1" parent="1">
                    <mxGeometry x="795" y="140" width="160" height="80" as="geometry"/>
                </mxCell>
                <mxCell id="101" value="" style="text;html=1;strokeColor=none;fillColor=default;align=left;verticalAlign=middle;spacingLeft=4;spacingRight=4;overflow=hidden;rotatable=0;points=[[0,0.5],[1,0.5]];portConstraint=eastwest;" vertex="1" parent="99">
                    <mxGeometry y="60" width="160" height="20" as="geometry"/>
                </mxCell>
            </root>
        </mxGraphModel>
    </diagram>
    <diagram id="xzxv6ihuMSCX7Wr9IGkO" name="Data-Base">
        <mxGraphModel dx="383" dy="555" grid="1" gridSize="10" guides="1" tooltips="1" connect="1" arrows="1" fold="1" page="1" pageScale="1" pageWidth="850" pageHeight="1100" background="#7D7D7D" math="0" shadow="0">
            <root>
                <mxCell id="0"/>
                <mxCell id="1" parent="0"/>
                <mxCell id="V01qmD3HQfIKDH54-NmC-1" value="Cores:" style="swimlane;fontStyle=0;align=center;verticalAlign=top;childLayout=stackLayout;horizontal=1;startSize=40;horizontalStack=0;resizeParent=1;resizeParentMax=0;resizeLast=0;collapsible=0;marginBottom=0;html=1;fillColor=#0050ef;strokeColor=#001DBC;labelPadding=10;noLabel=0;resizeWidth=1;resizeHeight=1;shadow=0;rounded=0;glass=0;fontColor=#ffffff;" vertex="1" parent="1">
                    <mxGeometry width="160" height="120" as="geometry"/>
                </mxCell>
                <mxCell id="V01qmD3HQfIKDH54-NmC-2" value="&lt;font color=&quot;#6600cc&quot;&gt;Roxo = Variavel&lt;/font&gt;" style="text;html=1;strokeColor=none;fillColor=default;align=left;verticalAlign=middle;spacingLeft=4;spacingRight=4;overflow=hidden;rotatable=0;points=[[0,0.5],[1,0.5]];portConstraint=eastwest;" vertex="1" parent="V01qmD3HQfIKDH54-NmC-1">
                    <mxGeometry y="40" width="160" height="20" as="geometry"/>
                </mxCell>
                <mxCell id="V01qmD3HQfIKDH54-NmC-3" value="Verde = Output" style="text;html=1;strokeColor=none;fillColor=default;align=left;verticalAlign=middle;spacingLeft=4;spacingRight=4;overflow=hidden;rotatable=0;points=[[0,0.5],[1,0.5]];portConstraint=eastwest;fontColor=#009900;" vertex="1" parent="V01qmD3HQfIKDH54-NmC-1">
                    <mxGeometry y="60" width="160" height="20" as="geometry"/>
                </mxCell>
                <mxCell id="V01qmD3HQfIKDH54-NmC-4" value="&lt;font color=&quot;#ff0000&quot;&gt;Vermelho = Condição&lt;/font&gt;" style="text;html=1;strokeColor=none;fillColor=default;align=left;verticalAlign=middle;spacingLeft=4;spacingRight=4;overflow=hidden;rotatable=0;points=[[0,0.5],[1,0.5]];portConstraint=eastwest;fontColor=#009900;" vertex="1" parent="V01qmD3HQfIKDH54-NmC-1">
                    <mxGeometry y="80" width="160" height="20" as="geometry"/>
                </mxCell>
                <mxCell id="V01qmD3HQfIKDH54-NmC-5" value="&lt;font color=&quot;#0000ff&quot;&gt;Azul = Lógica&lt;/font&gt;" style="text;html=1;strokeColor=none;fillColor=default;align=left;verticalAlign=middle;spacingLeft=4;spacingRight=4;overflow=hidden;rotatable=0;points=[[0,0.5],[1,0.5]];portConstraint=eastwest;fontColor=#009900;" vertex="1" parent="V01qmD3HQfIKDH54-NmC-1">
                    <mxGeometry y="100" width="160" height="20" as="geometry"/>
                </mxCell>
                <mxCell id="3O4wiXVFi2m3zm2U3NZf-1" value="Class&lt;br&gt;db_INAES&lt;br&gt;" style="swimlane;fontStyle=0;align=center;verticalAlign=top;childLayout=stackLayout;horizontal=1;startSize=40;horizontalStack=0;resizeParent=1;resizeParentMax=0;resizeLast=0;collapsible=0;marginBottom=0;html=1;fillColor=#0050ef;strokeColor=#001DBC;labelPadding=10;noLabel=0;resizeWidth=1;resizeHeight=1;shadow=0;rounded=0;glass=0;fontColor=#ffffff;" vertex="1" parent="1">
                    <mxGeometry x="795" y="260" width="160" height="60" as="geometry"/>
                </mxCell>
                <mxCell id="3O4wiXVFi2m3zm2U3NZf-2" value="" style="text;html=1;strokeColor=none;fillColor=default;align=center;verticalAlign=middle;spacingLeft=4;spacingRight=4;overflow=hidden;rotatable=0;points=[[0,0.5],[1,0.5]];portConstraint=eastwest;" vertex="1" parent="3O4wiXVFi2m3zm2U3NZf-1">
                    <mxGeometry y="40" width="160" height="20" as="geometry"/>
                </mxCell>
                <mxCell id="7JadRcgvPclPiqqmAFA7-33" style="edgeStyle=orthogonalEdgeStyle;html=1;exitX=0.5;exitY=1;exitDx=0;exitDy=0;entryX=0.5;entryY=0;entryDx=0;entryDy=0;strokeColor=#000000;fontColor=#6600CC;" edge="1" parent="1" source="u5ApRXdF9Z3bEUS9fE3_-1" target="7JadRcgvPclPiqqmAFA7-13">
                    <mxGeometry relative="1" as="geometry"/>
                </mxCell>
                <mxCell id="u5ApRXdF9Z3bEUS9fE3_-1" value="def&lt;br&gt;Cadastro&lt;br&gt;" style="swimlane;fontStyle=0;align=center;verticalAlign=top;childLayout=stackLayout;horizontal=1;startSize=40;horizontalStack=0;resizeParent=1;resizeParentMax=0;resizeLast=0;collapsible=0;marginBottom=0;html=1;fillColor=#60a917;strokeColor=#2D7600;labelPadding=10;noLabel=0;resizeWidth=1;resizeHeight=1;shadow=0;rounded=0;glass=0;fontColor=#ffffff;" vertex="1" parent="1">
                    <mxGeometry x="650" y="390" width="160" height="100" as="geometry"/>
                </mxCell>
                <mxCell id="7JadRcgvPclPiqqmAFA7-2" value="self.usuario:str" style="text;html=1;align=center;verticalAlign=middle;spacingLeft=4;spacingRight=4;overflow=hidden;rotatable=0;points=[[0,0.5],[1,0.5]];portConstraint=eastwest;fillColor=default;fontColor=#6600CC;" vertex="1" parent="u5ApRXdF9Z3bEUS9fE3_-1">
                    <mxGeometry y="40" width="160" height="20" as="geometry"/>
                </mxCell>
                <mxCell id="u5ApRXdF9Z3bEUS9fE3_-2" value="self.senha:str" style="text;html=1;align=center;verticalAlign=middle;spacingLeft=4;spacingRight=4;overflow=hidden;rotatable=0;points=[[0,0.5],[1,0.5]];portConstraint=eastwest;fillColor=default;fontColor=#6600CC;" vertex="1" parent="u5ApRXdF9Z3bEUS9fE3_-1">
                    <mxGeometry y="60" width="160" height="20" as="geometry"/>
                </mxCell>
                <mxCell id="7JadRcgvPclPiqqmAFA7-1" value="self.saldo:str" style="text;html=1;align=center;verticalAlign=middle;spacingLeft=4;spacingRight=4;overflow=hidden;rotatable=0;points=[[0,0.5],[1,0.5]];portConstraint=eastwest;fillColor=default;fontColor=#6600CC;" vertex="1" parent="u5ApRXdF9Z3bEUS9fE3_-1">
                    <mxGeometry y="80" width="160" height="20" as="geometry"/>
                </mxCell>
                <mxCell id="7JadRcgvPclPiqqmAFA7-12" value="Assets" style="childLayout=tableLayout;recursiveResize=0;strokeColor=#98bf21;fillColor=#A7C942;shadow=1;rounded=0;glass=0;sketch=0;fontColor=#6600CC;" vertex="1" parent="1">
                    <mxGeometry x="590" y="560" width="280" height="160" as="geometry"/>
                </mxCell>
                <mxCell id="7JadRcgvPclPiqqmAFA7-13" style="shape=tableRow;horizontal=0;startSize=0;swimlaneHead=0;swimlaneBody=0;top=0;left=0;bottom=0;right=0;dropTarget=0;collapsible=0;recursiveResize=0;expand=0;fontStyle=0;strokeColor=inherit;fillColor=#ffffff;rounded=0;shadow=0;glass=0;sketch=0;fontColor=#6600CC;" vertex="1" parent="7JadRcgvPclPiqqmAFA7-12">
                    <mxGeometry width="280" height="33" as="geometry"/>
                </mxCell>
                <mxCell id="7JadRcgvPclPiqqmAFA7-14" value="nome" style="connectable=0;recursiveResize=0;strokeColor=inherit;fillColor=#A7C942;align=center;fontStyle=1;fontColor=#FFFFFF;html=1;rounded=0;shadow=0;glass=0;sketch=0;" vertex="1" parent="7JadRcgvPclPiqqmAFA7-13">
                    <mxGeometry width="93" height="33" as="geometry">
                        <mxRectangle width="93" height="33" as="alternateBounds"/>
                    </mxGeometry>
                </mxCell>
                <mxCell id="7JadRcgvPclPiqqmAFA7-15" value="senha" style="connectable=0;recursiveResize=0;strokeColor=inherit;fillColor=#A7C942;align=center;fontStyle=1;fontColor=#FFFFFF;html=1;rounded=0;shadow=0;glass=0;sketch=0;" vertex="1" parent="7JadRcgvPclPiqqmAFA7-13">
                    <mxGeometry x="93" width="94" height="33" as="geometry">
                        <mxRectangle width="94" height="33" as="alternateBounds"/>
                    </mxGeometry>
                </mxCell>
                <mxCell id="7JadRcgvPclPiqqmAFA7-16" value="saldo" style="connectable=0;recursiveResize=0;strokeColor=inherit;fillColor=#A7C942;align=center;fontStyle=1;fontColor=#FFFFFF;html=1;rounded=0;shadow=0;glass=0;sketch=0;" vertex="1" parent="7JadRcgvPclPiqqmAFA7-13">
                    <mxGeometry x="187" width="93" height="33" as="geometry">
                        <mxRectangle width="93" height="33" as="alternateBounds"/>
                    </mxGeometry>
                </mxCell>
                <mxCell id="7JadRcgvPclPiqqmAFA7-17" value="" style="shape=tableRow;horizontal=0;startSize=0;swimlaneHead=0;swimlaneBody=0;top=0;left=0;bottom=0;right=0;dropTarget=0;collapsible=0;recursiveResize=0;expand=0;fontStyle=0;strokeColor=inherit;fillColor=#ffffff;rounded=0;shadow=0;glass=0;sketch=0;fontColor=#6600CC;" vertex="1" parent="7JadRcgvPclPiqqmAFA7-12">
                    <mxGeometry y="33" width="280" height="32" as="geometry"/>
                </mxCell>
                <mxCell id="7JadRcgvPclPiqqmAFA7-18" value="Marcos" style="connectable=0;recursiveResize=0;strokeColor=inherit;fillColor=inherit;align=center;whiteSpace=wrap;html=1;rounded=0;shadow=0;glass=0;sketch=0;fontColor=#6600CC;" vertex="1" parent="7JadRcgvPclPiqqmAFA7-17">
                    <mxGeometry width="93" height="32" as="geometry">
                        <mxRectangle width="93" height="32" as="alternateBounds"/>
                    </mxGeometry>
                </mxCell>
                <mxCell id="7JadRcgvPclPiqqmAFA7-19" value="123" style="connectable=0;recursiveResize=0;strokeColor=inherit;fillColor=inherit;align=center;whiteSpace=wrap;html=1;rounded=0;shadow=0;glass=0;sketch=0;fontColor=#6600CC;" vertex="1" parent="7JadRcgvPclPiqqmAFA7-17">
                    <mxGeometry x="93" width="94" height="32" as="geometry">
                        <mxRectangle width="94" height="32" as="alternateBounds"/>
                    </mxGeometry>
                </mxCell>
                <mxCell id="7JadRcgvPclPiqqmAFA7-20" value="100" style="connectable=0;recursiveResize=0;strokeColor=inherit;fillColor=inherit;align=center;whiteSpace=wrap;html=1;rounded=0;shadow=0;glass=0;sketch=0;fontColor=#6600CC;" vertex="1" parent="7JadRcgvPclPiqqmAFA7-17">
                    <mxGeometry x="187" width="93" height="32" as="geometry">
                        <mxRectangle width="93" height="32" as="alternateBounds"/>
                    </mxGeometry>
                </mxCell>
                <mxCell id="7JadRcgvPclPiqqmAFA7-21" value="" style="shape=tableRow;horizontal=0;startSize=0;swimlaneHead=0;swimlaneBody=0;top=0;left=0;bottom=0;right=0;dropTarget=0;collapsible=0;recursiveResize=0;expand=0;fontStyle=1;strokeColor=inherit;fillColor=#EAF2D3;rounded=0;shadow=0;glass=0;sketch=0;fontColor=#6600CC;" vertex="1" parent="7JadRcgvPclPiqqmAFA7-12">
                    <mxGeometry y="65" width="280" height="31" as="geometry"/>
                </mxCell>
                <mxCell id="7JadRcgvPclPiqqmAFA7-22" value="Atila" style="connectable=0;recursiveResize=0;strokeColor=inherit;fillColor=inherit;whiteSpace=wrap;html=1;rounded=0;shadow=0;glass=0;sketch=0;fontColor=#6600CC;" vertex="1" parent="7JadRcgvPclPiqqmAFA7-21">
                    <mxGeometry width="93" height="31" as="geometry">
                        <mxRectangle width="93" height="31" as="alternateBounds"/>
                    </mxGeometry>
                </mxCell>
                <mxCell id="7JadRcgvPclPiqqmAFA7-23" value="321" style="connectable=0;recursiveResize=0;strokeColor=inherit;fillColor=inherit;whiteSpace=wrap;html=1;rounded=0;shadow=0;glass=0;sketch=0;fontColor=#6600CC;" vertex="1" parent="7JadRcgvPclPiqqmAFA7-21">
                    <mxGeometry x="93" width="94" height="31" as="geometry">
                        <mxRectangle width="94" height="31" as="alternateBounds"/>
                    </mxGeometry>
                </mxCell>
                <mxCell id="7JadRcgvPclPiqqmAFA7-24" value="150" style="connectable=0;recursiveResize=0;strokeColor=inherit;fillColor=inherit;whiteSpace=wrap;html=1;rounded=0;shadow=0;glass=0;sketch=0;fontColor=#6600CC;" vertex="1" parent="7JadRcgvPclPiqqmAFA7-21">
                    <mxGeometry x="187" width="93" height="31" as="geometry">
                        <mxRectangle width="93" height="31" as="alternateBounds"/>
                    </mxGeometry>
                </mxCell>
                <mxCell id="7JadRcgvPclPiqqmAFA7-25" value="" style="shape=tableRow;horizontal=0;startSize=0;swimlaneHead=0;swimlaneBody=0;top=0;left=0;bottom=0;right=0;dropTarget=0;collapsible=0;recursiveResize=0;expand=0;fontStyle=0;strokeColor=inherit;fillColor=#ffffff;rounded=0;shadow=0;glass=0;sketch=0;fontColor=#6600CC;" vertex="1" parent="7JadRcgvPclPiqqmAFA7-12">
                    <mxGeometry y="96" width="280" height="33" as="geometry"/>
                </mxCell>
                <mxCell id="7JadRcgvPclPiqqmAFA7-26" value="Julia" style="connectable=0;recursiveResize=0;strokeColor=inherit;fillColor=inherit;fontStyle=0;align=center;whiteSpace=wrap;html=1;rounded=0;shadow=0;glass=0;sketch=0;fontColor=#6600CC;" vertex="1" parent="7JadRcgvPclPiqqmAFA7-25">
                    <mxGeometry width="93" height="33" as="geometry">
                        <mxRectangle width="93" height="33" as="alternateBounds"/>
                    </mxGeometry>
                </mxCell>
                <mxCell id="7JadRcgvPclPiqqmAFA7-27" value="1234" style="connectable=0;recursiveResize=0;strokeColor=inherit;fillColor=inherit;fontStyle=0;align=center;whiteSpace=wrap;html=1;rounded=0;shadow=0;glass=0;sketch=0;fontColor=#6600CC;" vertex="1" parent="7JadRcgvPclPiqqmAFA7-25">
                    <mxGeometry x="93" width="94" height="33" as="geometry">
                        <mxRectangle width="94" height="33" as="alternateBounds"/>
                    </mxGeometry>
                </mxCell>
                <mxCell id="7JadRcgvPclPiqqmAFA7-28" value="200" style="connectable=0;recursiveResize=0;strokeColor=inherit;fillColor=inherit;fontStyle=0;align=center;whiteSpace=wrap;html=1;rounded=0;shadow=0;glass=0;sketch=0;fontColor=#6600CC;" vertex="1" parent="7JadRcgvPclPiqqmAFA7-25">
                    <mxGeometry x="187" width="93" height="33" as="geometry">
                        <mxRectangle width="93" height="33" as="alternateBounds"/>
                    </mxGeometry>
                </mxCell>
                <mxCell id="7JadRcgvPclPiqqmAFA7-29" value="" style="shape=tableRow;horizontal=0;startSize=0;swimlaneHead=0;swimlaneBody=0;top=0;left=0;bottom=0;right=0;dropTarget=0;collapsible=0;recursiveResize=0;expand=0;fontStyle=1;strokeColor=inherit;fillColor=#EAF2D3;rounded=0;shadow=0;glass=0;sketch=0;fontColor=#6600CC;" vertex="1" parent="7JadRcgvPclPiqqmAFA7-12">
                    <mxGeometry y="129" width="280" height="31" as="geometry"/>
                </mxCell>
                <mxCell id="7JadRcgvPclPiqqmAFA7-30" value="String" style="connectable=0;recursiveResize=0;strokeColor=inherit;fillColor=inherit;whiteSpace=wrap;html=1;rounded=0;shadow=0;glass=0;sketch=0;fontColor=#6600CC;" vertex="1" parent="7JadRcgvPclPiqqmAFA7-29">
                    <mxGeometry width="93" height="31" as="geometry">
                        <mxRectangle width="93" height="31" as="alternateBounds"/>
                    </mxGeometry>
                </mxCell>
                <mxCell id="7JadRcgvPclPiqqmAFA7-31" value="String" style="connectable=0;recursiveResize=0;strokeColor=inherit;fillColor=inherit;whiteSpace=wrap;html=1;rounded=0;shadow=0;glass=0;sketch=0;fontColor=#6600CC;" vertex="1" parent="7JadRcgvPclPiqqmAFA7-29">
                    <mxGeometry x="93" width="94" height="31" as="geometry">
                        <mxRectangle width="94" height="31" as="alternateBounds"/>
                    </mxGeometry>
                </mxCell>
                <mxCell id="7JadRcgvPclPiqqmAFA7-32" value="Float" style="connectable=0;recursiveResize=0;strokeColor=inherit;fillColor=inherit;whiteSpace=wrap;html=1;rounded=0;shadow=0;glass=0;sketch=0;fontColor=#6600CC;" vertex="1" parent="7JadRcgvPclPiqqmAFA7-29">
                    <mxGeometry x="187" width="93" height="31" as="geometry">
                        <mxRectangle width="93" height="31" as="alternateBounds"/>
                    </mxGeometry>
                </mxCell>
            </root>
        </mxGraphModel>
    </diagram>
</mxfile>